<svg width="181" height="46" viewBox="0 0 181 46" fill="none" xmlns="http://www.w3.org/2000/svg">
<path d="M51.033 24.3168C51.033 27.4688 52.8582 28.9279 55.6772 28.9279C56.5732 28.9279 57.2036 28.7957 57.7349 28.5631V24.9142C57.415 25.0254 57.0784 25.0812 56.7397 25.0794C55.6111 25.0794 55.4459 24.3168 55.4459 23.4868V7.75977H51V24.3168H51.033Z" fill="#E6ECED"/>
<path d="M60.7544 28.5963H65.2003V13.6344H60.7544V28.5963ZM62.9126 7C61.5513 7 60.457 7.99517 60.457 9.35509C60.457 10.715 61.55 11.7432 62.9126 11.7432C64.2751 11.7432 65.3985 10.7163 65.3985 9.35509C65.3655 7.99517 64.2712 7 62.9126 7Z" fill="#E6ECED"/>
<path d="M69.2129 13.6017V28.5583H73.6574V20.7609C73.6574 18.8036 74.687 17.145 76.6099 17.145C78.2355 17.145 79.298 18.1732 79.298 20.1305V28.5583H83.7426V19.4736C83.7426 15.5921 81.5197 13.27 77.9381 13.27C75.9134 13.27 74.4544 14.0326 73.4922 15.559V13.6348H69.2129V13.6017Z" fill="#E6ECED"/>
<path d="M87.4941 7.76221V28.5576H91.9387V23.8131L93.2603 22.2879L97.3414 28.5246H102.616L96.5445 19.7663L102.052 13.5627H96.8471L91.9043 19.1029V7.76221H87.4941Z" fill="#E6ECED"/>
<path d="M105.203 17.118V28.5961H109.649V17.118H112.667V13.6012H109.653V12.9404C109.653 11.6796 110.549 11.1827 111.742 11.1827C112.258 11.181 112.768 11.2925 113.236 11.5091V7.89587C112.638 7.56415 111.709 7.43066 110.947 7.43066C107.331 7.43066 105.24 9.55448 105.24 12.8717V13.6343H103.184V17.151H105.203V17.118Z" fill="#E6ECED"/>
<path d="M115.658 28.5963H120.104V13.6344H115.658V28.5963ZM117.815 7C116.455 7 115.359 7.99517 115.359 9.35509C115.359 10.715 116.455 11.7432 117.815 11.7432C119.175 11.7432 120.302 10.7163 120.302 9.35509C120.302 7.99384 119.175 7 117.815 7Z" fill="#E6ECED"/>
<path d="M130.686 13.27C126.241 13.27 122.99 16.7207 122.99 21.1322C122.99 25.5781 126.274 28.9614 131.283 28.9614C133.738 28.9614 135.729 28.2649 137.619 26.5072L135.297 23.6538C134.812 24.1556 134.229 24.5528 133.584 24.8209C132.94 25.0891 132.247 25.2227 131.549 25.2133C129.559 25.2133 127.8 24.2182 127.568 22.1935H137.553C137.72 21.5429 137.809 20.8747 137.817 20.2031C137.786 16.1234 134.965 13.27 130.686 13.27ZM130.62 16.8859C132.179 16.8859 133.406 17.848 133.473 19.4075V19.4393H127.501C127.7 17.782 128.993 16.8859 130.62 16.8859Z" fill="#E6ECED"/>
<path d="M140.504 24.3168C140.504 27.4688 142.329 28.9279 145.149 28.9279C146.044 28.9279 146.674 28.7957 147.206 28.5631V24.9142C146.886 25.0256 146.549 25.0814 146.21 25.0794C145.082 25.0794 144.917 24.3168 144.917 23.4868V7.75977H140.471V24.3168H140.504Z" fill="#E6ECED"/>
<path d="M156.264 25.0131C154.372 25.0131 152.78 23.4536 152.78 21.0324C152.78 18.7104 154.366 17.1509 156.264 17.1509C158.254 17.1509 159.779 18.6773 159.779 21.0324C159.812 23.5197 158.254 25.0131 156.264 25.0131ZM160.012 28.5959H164.126V7.76221H159.68V15.3931C158.718 13.8997 156.993 13.2363 155.368 13.2363C151.286 13.2363 148.334 16.6196 148.334 21.0985C148.334 25.7096 151.486 28.9277 155.267 28.9277C156.761 28.9277 158.917 28.2669 160.012 26.4721V28.5959Z" fill="#E6ECED"/>
<path d="M173.15 28.928C176.733 28.928 179.155 26.9047 179.155 24.317C179.155 21.4967 176.998 20.635 174.443 19.6055C172.222 18.7438 171.392 18.4781 171.392 17.7816C171.392 17.0852 172.222 16.653 173.183 16.653C174.577 16.653 175.472 17.3508 176.003 18.2786L178.818 16.2222C177.893 14.4314 175.765 13.2036 173.278 13.2036C169.994 13.2036 167.307 14.9613 167.307 17.7486C167.307 20.1698 168.931 21.3975 171.951 22.4258C174.207 23.2187 175.102 23.483 175.102 24.383C175.102 25.0438 174.405 25.4403 173.212 25.4403C171.652 25.4403 170.524 24.5456 169.728 23.2848L166.809 25.4734C167.981 27.7003 170.36 28.928 173.15 28.928Z" fill="#E6ECED"/>
<path d="M54.8249 36.8707C54.8221 37.0221 54.8031 37.1728 54.7681 37.3201H52.2134C52.2703 37.891 52.7487 38.191 53.2839 38.191C53.4629 38.1928 53.6402 38.1576 53.8049 38.0875C53.9696 38.0175 54.118 37.9141 54.2408 37.784L54.7536 38.3972C54.5566 38.5962 54.3206 38.7524 54.0604 38.8558C53.8003 38.9593 53.5215 39.0079 53.2417 38.9985C52.0416 38.9985 51.25 38.1633 51.25 37.1007C51.25 36.0381 52.0284 35.187 53.1121 35.187C54.147 35.1857 54.8249 35.9073 54.8249 36.8707ZM52.2134 36.6923H53.9249V36.6844C53.9196 36.5827 53.894 36.483 53.8497 36.3913C53.8055 36.2996 53.7434 36.2175 53.6672 36.15C53.5909 36.0825 53.502 36.0308 53.4056 35.998C53.3091 35.9652 53.2071 35.9518 53.1055 35.9588C52.8921 35.9474 52.6821 36.0164 52.5169 36.1522C52.3518 36.288 52.2435 36.4807 52.2134 36.6923Z" fill="#E6ECED"/>
<path d="M59.3719 37.0702L58.1547 35.2715H59.2186L59.9389 36.449L60.6657 35.2715H61.723L60.5098 37.0702L61.7521 38.9112H60.7094L59.9389 37.7059L59.1684 38.9112H58.127L59.3719 37.0702Z" fill="#E6ECED"/>
<path d="M66.2875 35.7856C66.4196 35.5987 66.595 35.4465 66.7986 35.342C67.0023 35.2376 67.2282 35.1839 67.4571 35.1856C68.3994 35.1856 69.1752 35.9706 69.1752 37.0913C69.1752 38.183 68.4483 38.9971 67.4571 38.9971C67.0289 38.9971 66.5716 38.8121 66.3509 38.4764V40.3385H65.4258V35.2715H66.2967L66.2875 35.7856ZM66.3086 37.0993C66.3086 37.7601 66.7368 38.1698 67.2721 38.1698C67.7862 38.1698 68.2355 37.7416 68.2355 37.0993C68.2355 36.457 67.7862 36.0142 67.2721 36.0142C66.7368 36.0142 66.3086 36.4424 66.3086 37.0993Z" fill="#E6ECED"/>
<path d="M72.989 33.8442H73.9141V37.7628C73.9141 37.9914 73.9577 38.1764 74.2352 38.1764C74.3182 38.1778 74.4007 38.1634 74.4784 38.1342V38.9192C74.3395 38.9718 74.1921 38.9982 74.0436 38.9972C73.4436 38.9972 72.9863 38.6906 72.9863 37.9267L72.989 33.8442Z" fill="#E6ECED"/>
<path d="M81.7443 37.0917C81.7485 37.4737 81.6391 37.8483 81.4299 38.1679C81.2207 38.4876 80.9213 38.7378 80.5696 38.8869C80.2179 39.036 79.8298 39.0772 79.4546 39.0052C79.0795 38.9333 78.7341 38.7515 78.4625 38.4828C78.1909 38.2142 78.0053 37.8709 77.9292 37.4966C77.8531 37.1222 77.8901 36.7337 78.0353 36.3804C78.1805 36.0271 78.4274 35.7249 78.7447 35.5122C79.062 35.2995 79.4354 35.186 79.8174 35.1859C80.0708 35.1782 80.323 35.222 80.5589 35.3148C80.7948 35.4075 81.0094 35.5473 81.1896 35.7255C81.3698 35.9038 81.5119 36.1168 81.6073 36.3516C81.7026 36.5865 81.7493 36.8383 81.7443 37.0917ZM78.8368 37.0917C78.8368 37.6917 79.2504 38.1556 79.8214 38.1556C80.3923 38.1556 80.806 37.6917 80.806 37.0917C80.806 36.4917 80.3923 36.0344 79.8214 36.0344C79.2504 36.0344 78.8328 36.4877 78.8328 37.0917H78.8368Z" fill="#E6ECED"/>
<path d="M86.5102 35.9073C86.5849 35.6935 86.7251 35.5086 86.9109 35.3791C87.0967 35.2496 87.3186 35.1819 87.545 35.1857C87.6201 35.1824 87.6953 35.1923 87.767 35.2147V36.1068C87.7026 36.0842 87.6344 36.0744 87.5662 36.0777C86.9172 36.0777 86.5247 36.5641 86.5247 37.3134V38.9113H85.5996V35.2716H86.5128L86.5102 35.9073Z" fill="#E6ECED"/>
<path d="M92.4722 34.2157C92.4722 34.3559 92.4165 34.4903 92.3174 34.5895C92.2183 34.6886 92.0838 34.7443 91.9436 34.7443C91.8732 34.7469 91.803 34.735 91.7373 34.7094C91.6717 34.6838 91.612 34.6451 91.5618 34.5956C91.5117 34.546 91.4722 34.4868 91.4458 34.4215C91.4194 34.3561 91.4067 34.2861 91.4083 34.2157C91.4068 34.1456 91.4197 34.076 91.4463 34.0112C91.4728 33.9463 91.5124 33.8877 91.5626 33.8388C91.6129 33.79 91.6726 33.752 91.7381 33.7272C91.8037 33.7025 91.8736 33.6915 91.9436 33.695C92.0127 33.6935 92.0815 33.706 92.1457 33.7316C92.21 33.7571 92.2685 33.7953 92.3177 33.8438C92.367 33.8924 92.4061 33.9503 92.4326 34.0141C92.4591 34.078 92.4726 34.1465 92.4722 34.2157ZM91.481 35.273H92.4062V38.9126H91.481V35.273Z" fill="#E6ECED"/>
<path d="M97.4317 35.2715V35.771C97.6604 35.393 98.0172 35.1855 98.5524 35.1855C99.4088 35.1855 99.9652 35.7433 99.9652 36.7067V38.9111H99.0401V36.8138C99.0401 36.2917 98.7335 36.0142 98.3053 36.0142C97.7278 36.0142 97.47 36.5349 97.47 37.0345V38.9111H96.5449V35.2715H97.4317Z" fill="#E6ECED"/>
<path d="M104.278 38.6825C104.193 38.6253 104.124 38.5475 104.078 38.4564C104.032 38.3653 104.01 38.2639 104.013 38.1618C104.013 37.9266 104.171 37.7125 104.42 37.5631C104.235 37.4525 104.08 37.2959 103.973 37.1084C103.865 36.9209 103.808 36.7088 103.806 36.4926C103.806 35.7644 104.467 35.1856 105.305 35.1856C105.477 35.1851 105.649 35.2142 105.812 35.2715H107.246V35.9851H106.683C106.769 36.1405 106.814 36.315 106.815 36.4926C106.815 37.234 106.154 37.805 105.302 37.805C105.209 37.8051 105.115 37.798 105.023 37.7838C104.975 37.8022 104.934 37.8331 104.902 37.8734C104.871 37.9137 104.851 37.9617 104.845 38.0125C104.845 38.1552 104.987 38.2266 105.13 38.2266H106.045C106.786 38.2266 107.286 38.6693 107.286 39.2759C107.286 39.9248 106.551 40.4244 105.416 40.4244C104.368 40.4244 103.697 40.0279 103.697 39.4253C103.69 39.075 103.939 38.8252 104.278 38.6825ZM105.426 39.6896C106.054 39.6896 106.375 39.5257 106.375 39.2931C106.375 39.0605 106.154 38.9587 105.905 38.9587H104.891C104.812 38.9799 104.742 39.0247 104.69 39.0871C104.638 39.1495 104.606 39.2265 104.599 39.3076C104.596 39.5534 104.938 39.6896 105.423 39.6896H105.426ZM104.646 36.4873C104.649 36.5704 104.669 36.6521 104.704 36.7276C104.739 36.803 104.788 36.8706 104.85 36.9265C104.912 36.9823 104.984 37.0252 105.062 37.0526C105.141 37.08 105.224 37.0914 105.307 37.086C105.39 37.0903 105.473 37.0782 105.551 37.0504C105.629 37.0225 105.701 36.9796 105.762 36.924C105.823 36.8683 105.873 36.8011 105.909 36.7262C105.944 36.6513 105.964 36.5701 105.968 36.4873C105.968 36.1516 105.675 35.8939 105.307 35.8939C105.224 35.888 105.141 35.8988 105.063 35.9257C104.985 35.9526 104.912 35.995 104.851 36.0503C104.789 36.1057 104.739 36.173 104.704 36.248C104.669 36.3231 104.649 36.4045 104.646 36.4873Z" fill="#E6ECED"/>
<path d="M116.822 34.2157C116.822 34.3559 116.766 34.4903 116.667 34.5895C116.568 34.6886 116.433 34.7443 116.293 34.7443C116.223 34.7469 116.153 34.735 116.087 34.7094C116.021 34.6838 115.962 34.6451 115.911 34.5956C115.861 34.546 115.822 34.4868 115.795 34.4215C115.769 34.3561 115.756 34.2861 115.758 34.2157C115.756 34.1456 115.769 34.076 115.796 34.0112C115.822 33.9463 115.862 33.8877 115.912 33.8388C115.962 33.79 116.022 33.752 116.088 33.7272C116.153 33.7025 116.223 33.6915 116.293 33.695C116.362 33.6935 116.431 33.706 116.495 33.7316C116.56 33.7571 116.618 33.7953 116.667 33.8438C116.717 33.8924 116.756 33.9503 116.782 34.0141C116.809 34.078 116.822 34.1465 116.822 34.2157ZM115.829 35.273H116.754V38.9126H115.829V35.273Z" fill="#E6ECED"/>
<path d="M121.781 35.2715V35.771C122.01 35.393 122.367 35.1855 122.902 35.1855C123.758 35.1855 124.315 35.7433 124.315 36.7067V38.9111H123.39V36.8138C123.39 36.2917 123.083 36.0142 122.655 36.0142C122.076 36.0142 121.82 36.5349 121.82 37.0345V38.9111H120.895V35.2715H121.781Z" fill="#E6ECED"/>
<path d="M129.281 35.2715V35.771C129.51 35.393 129.867 35.1855 130.402 35.1855C131.258 35.1855 131.815 35.7433 131.815 36.7067V38.9111H130.89V36.8138C130.89 36.2917 130.583 36.0142 130.155 36.0142C129.577 36.0142 129.32 36.5349 129.32 37.0345V38.9111H128.395V35.2715H129.281Z" fill="#E6ECED"/>
<path d="M139.465 37.0917C139.469 37.4737 139.36 37.8483 139.151 38.1679C138.941 38.4876 138.642 38.7378 138.29 38.8869C137.939 39.036 137.55 39.0772 137.175 39.0052C136.8 38.9333 136.455 38.7515 136.183 38.4828C135.912 38.2142 135.726 37.8709 135.65 37.4966C135.574 37.1222 135.611 36.7337 135.756 36.3804C135.901 36.0271 136.148 35.7249 136.465 35.5122C136.783 35.2995 137.156 35.186 137.538 35.1859C137.791 35.1782 138.044 35.222 138.28 35.3148C138.516 35.4075 138.73 35.5473 138.91 35.7255C139.091 35.9038 139.233 36.1168 139.328 36.3516C139.423 36.5865 139.47 36.8383 139.465 37.0917ZM136.557 37.0917C136.557 37.6917 136.971 38.1556 137.542 38.1556C138.113 38.1556 138.527 37.6917 138.527 37.0917C138.527 36.4917 138.113 36.0344 137.542 36.0344C136.971 36.0344 136.554 36.4877 136.554 37.0917H136.557Z" fill="#E6ECED"/>
<path d="M143.697 35.2715L144.639 37.7825L145.574 35.2715H146.531L145.053 38.9112H144.218L142.736 35.2715H143.697Z" fill="#E6ECED"/>
<path d="M152.048 36.5998C152.048 36.1927 151.756 35.9932 151.32 35.9932C151.136 35.9937 150.955 36.0342 150.789 36.1118C150.622 36.1894 150.475 36.3022 150.356 36.4425L149.871 35.8504C150.058 35.6342 150.291 35.4626 150.553 35.3483C150.815 35.2339 151.099 35.1797 151.385 35.1896C152.363 35.1896 152.948 35.7183 152.948 36.6103V38.9152H152.092V38.4236C151.981 38.6085 151.822 38.7599 151.632 38.8616C151.442 38.9633 151.228 39.0116 151.013 39.0011C150.321 39.0011 149.814 38.5584 149.814 37.9306C149.814 37.3808 150.228 37.0055 151.004 36.8535L152.053 36.646L152.048 36.5998ZM152.062 37.4271V37.2698L151.213 37.4337C150.878 37.4985 150.707 37.6412 150.707 37.8698C150.707 38.1196 150.906 38.2835 151.199 38.2835C151.313 38.2851 151.425 38.2641 151.53 38.2217C151.635 38.1793 151.731 38.1164 151.811 38.0366C151.891 37.9569 151.955 37.8619 151.998 37.7572C152.041 37.6525 152.063 37.5403 152.062 37.4271Z" fill="#E6ECED"/>
<path d="M157.123 35.2715V34.2803H158.021V35.2715H158.884V36.0142H158.021V37.6345C158.021 37.9834 158.193 38.1631 158.527 38.1631C158.686 38.1668 158.843 38.1246 158.978 38.0416V38.8557C158.762 38.9586 158.525 39.0076 158.286 38.9984C157.543 38.9984 157.096 38.5636 157.096 37.7706V36.0142H156.582V35.2715H157.123Z" fill="#E6ECED"/>
<path d="M163.694 34.2159C163.694 34.3561 163.638 34.4905 163.539 34.5897C163.44 34.6888 163.306 34.7445 163.165 34.7445C163.096 34.7461 163.026 34.7336 162.961 34.7076C162.896 34.6816 162.837 34.6427 162.788 34.5933C162.739 34.5439 162.7 34.485 162.674 34.4201C162.648 34.3552 162.635 34.2857 162.637 34.2159C162.635 34.1464 162.648 34.0774 162.674 34.013C162.7 33.9486 162.739 33.8903 162.789 33.8415C162.838 33.7928 162.897 33.7546 162.962 33.7295C163.027 33.7043 163.096 33.6926 163.165 33.6952C163.235 33.6938 163.303 33.7062 163.368 33.7318C163.432 33.7573 163.49 33.7955 163.54 33.844C163.589 33.8926 163.628 33.9505 163.655 34.0143C163.681 34.0782 163.695 34.1467 163.694 34.2159ZM162.702 35.2732H163.627V38.9128H162.702V35.2732Z" fill="#E6ECED"/>
<path d="M171.338 37.0917C171.342 37.4737 171.233 37.8483 171.024 38.1679C170.814 38.4876 170.515 38.7378 170.163 38.8869C169.812 39.036 169.424 39.0772 169.048 39.0052C168.673 38.9333 168.328 38.7515 168.056 38.4828C167.785 38.2142 167.599 37.8709 167.523 37.4966C167.447 37.1222 167.484 36.7337 167.629 36.3804C167.774 36.0271 168.021 35.7249 168.338 35.5122C168.656 35.2995 169.029 35.186 169.411 35.1859C169.665 35.1782 169.917 35.222 170.153 35.3148C170.389 35.4075 170.603 35.5473 170.783 35.7255C170.964 35.9038 171.106 36.1168 171.201 36.3516C171.296 36.5865 171.343 36.8383 171.338 37.0917ZM168.431 37.0917C168.431 37.6917 168.844 38.1556 169.415 38.1556C169.986 38.1556 170.401 37.6917 170.401 37.0917C170.401 36.4917 169.986 36.0344 169.415 36.0344C168.844 36.0344 168.427 36.4877 168.427 37.0917H168.431Z" fill="#E6ECED"/>
<path d="M176.084 35.2715V35.771C176.313 35.393 176.67 35.1855 177.205 35.1855C178.061 35.1855 178.618 35.7433 178.618 36.7067V38.9111H177.692V36.8138C177.692 36.2917 177.386 36.0142 176.958 36.0142C176.38 36.0142 176.122 36.5349 176.122 37.0345V38.9111H175.197V35.2715H176.084Z" fill="#E6ECED"/>
<path d="M0 42.8568H6.51259C12.5077 42.8568 17.3691 37.83 17.3691 31.6301V3H10.8565C4.85921 3 0 8.02682 0 14.2267V42.8568Z" fill="#FFD600"/>
<path d="M36.7655 3.11426V10.471C36.7655 16.722 32.1919 21.7906 26.549 21.7906H19.3965V3.11426H36.7655Z" fill="#FF7800"/>
<path d="M36.7655 24.3516V31.7083C36.7655 37.9593 32.1919 43.0279 26.549 43.0279H19.3965V24.3516H36.7655Z" fill="#2D58C0"/>
</svg>
